<svg width="1024" height="1024" viewBox="0 0 1024 1024" fill="none" xmlns="http://www.w3.org/2000/svg">
  <rect width="1024" height="1024" fill="#E91E63"/>
  <path d="M512 200C400.954 200 312 288.954 312 400C312 511.046 400.954 600 512 600C623.046 600 712 511.046 712 400C712 288.954 623.046 200 512 200ZM512 680C400.954 680 312 768.954 312 880C312 991.046 400.954 1080 512 1080C623.046 1080 712 991.046 712 880C712 768.954 623.046 680 512 680Z" fill="white"/>
  <circle cx="512" cy="400" r="80" fill="white"/>
  <circle cx="512" cy="880" r="80" fill="white"/>
  <text x="512" y="600" text-anchor="middle" fill="white" font-family="Arial, sans-serif" font-size="48" font-weight="bold">WODATES</text>
</svg>
